<?xml version="1.0" encoding="UTF-8"?>
<svg id="Capa_1" data-name="Capa 1" xmlns="http://www.w3.org/2000/svg" viewBox="0 0 564.22 925.07">
  <defs>
    <style>
      .cls-1 {
        fill: #cbc9ca;
        stroke-width: 0px;
      }
    </style>
  </defs>
  <path class="cls-1" d="m515.82,285.06v354.94c0,128.18-104.63,232.08-233.72,232.08s-233.72-103.9-233.72-232.08v-354.94c0-128.17,104.64-232.08,233.72-232.08,64.54,0,122.97,25.97,165.26,67.97,42.29,42,68.45,100.02,68.45,164.11Z"/>
  <path class="cls-1" d="m282.11,925.07C126.55,925.07,0,799.4,0,644.94v-364.8C0,125.67,126.55,0,282.11,0s282.11,125.67,282.11,280.13v364.8c0,154.47-126.55,280.13-282.11,280.13Zm0-894.18c-138.4,0-251,111.81-251,249.24v364.8c0,137.43,112.6,249.24,251,249.24s251-111.81,251-249.24v-364.8c0-137.43-112.6-249.24-251-249.24Z"/>
</svg>